<svg width="138" height="32" viewBox="0 0 138 32" fill="none" xmlns="http://www.w3.org/2000/svg">
<path d="M135.659 16.0288C135.764 15.8885 135.83 15.727 135.849 15.5585C135.869 15.3901 135.842 15.22 135.771 15.0631C135.717 14.9405 135.639 14.8272 135.543 14.728C135.445 14.6286 135.326 14.5478 135.194 14.4901C135.055 14.4295 134.903 14.3987 134.748 14.3999H133.2V17.5999H133.834V16.483H134.5L135.286 17.5999H136L135.141 16.3819C135.354 16.3207 135.536 16.1961 135.659 16.0288ZM134.708 15.986H133.834V14.9117H134.684C134.756 14.91 134.828 14.9216 134.895 14.9458C134.962 14.97 135.023 15.0062 135.073 15.0523C135.128 15.1049 135.169 15.1668 135.196 15.2343C135.223 15.3018 135.234 15.3735 135.23 15.4451C135.238 15.5864 135.189 15.7256 135.093 15.8378C135.046 15.8874 134.987 15.9265 134.92 15.9521C134.853 15.9777 134.781 15.9892 134.708 15.9856V15.986Z" fill="#0093E5"/>
<path d="M137.372 14.8834C137.225 14.55 137.01 14.2491 136.739 13.9991C136.462 13.7469 136.139 13.5481 135.786 13.4134C135.015 13.1291 134.164 13.1291 133.394 13.4134C133.043 13.5481 132.722 13.7469 132.449 13.9991C132.18 14.2493 131.968 14.5503 131.824 14.8834C131.525 15.5972 131.525 16.3958 131.824 17.1096C131.968 17.4434 132.181 17.7454 132.449 17.9974C132.721 18.2517 133.043 18.452 133.394 18.5869C134.164 18.8713 135.016 18.8713 135.786 18.5869C136.14 18.452 136.463 18.2518 136.739 17.9974C137.009 17.7456 137.224 17.4437 137.372 17.1096C137.676 16.3968 137.676 15.5962 137.372 14.8834ZM137.007 17.0049C136.879 17.2993 136.69 17.5648 136.45 17.7844C136.209 18.0037 135.926 18.175 135.617 18.2886C135.288 18.4096 134.939 18.4701 134.588 18.4671C134.231 18.4713 133.877 18.4067 133.546 18.2771C133.24 18.156 132.961 17.9781 132.725 17.7534C132.492 17.5303 132.308 17.2638 132.184 16.9701C132.054 16.6598 131.989 16.3276 131.992 15.9927C131.989 15.6616 132.054 15.3332 132.184 15.027C132.308 14.7356 132.492 14.4717 132.725 14.2512C132.962 14.0287 133.241 13.8523 133.546 13.7316C133.877 13.602 134.231 13.5374 134.588 13.5416C134.944 13.5384 135.298 13.603 135.629 13.7316C135.939 13.8515 136.222 14.0279 136.462 14.2512C136.698 14.4723 136.885 14.7376 137.011 15.0309C137.143 15.3379 137.21 15.6677 137.207 16.0004C137.212 16.3449 137.144 16.6867 137.007 17.0048V17.0049Z" fill="#0093E5"/>
<path d="M115.451 19.7431V26.6205H115.453C115.422 27.5258 115.045 28.3835 114.401 29.0134C113.757 29.6433 112.896 29.9962 112 29.9979H103.193C102.978 29.9981 102.772 29.9133 102.619 29.7619C102.466 29.6104 102.377 29.4043 102.372 29.1876C102.371 29.1734 102.371 29.1591 102.372 29.1448V27.7245C104.638 26.1106 107.246 24.2557 108.923 23.0553C109.648 22.5511 110.241 21.8759 110.651 21.088C111.06 20.3001 111.273 19.4233 111.272 18.5334C110.961 11.1641 100.539 11.2826 100.395 18.656V26.7169C99.4213 27.4045 97.1142 29.0341 96.1666 29.7026C96.0869 29.7556 95.9946 29.786 95.8993 29.7905C95.804 29.795 95.7092 29.7735 95.625 29.7283C95.5407 29.683 95.47 29.6157 95.4204 29.5334C95.3707 29.4511 95.3439 29.3568 95.3427 29.2603V25.3635C95.3448 25.3421 95.3448 25.3196 95.346 25.2982H95.3427V19.7431H95.346C95.3448 19.7218 95.3448 19.6993 95.3427 19.6778V4.39689e-07C95.0832 -0.000173629 94.8262 0.0513383 94.5864 0.151595C94.3466 0.251852 94.1287 0.398889 93.9451 0.5843C93.7616 0.769711 93.616 0.989862 93.5166 1.23217C93.4173 1.47449 93.3662 1.73421 93.3662 1.9965V15.1098C89.1896 10.8062 81.8139 13.6637 81.6013 19.7431H81.6001V25.2982H81.6013C81.7928 31.3721 89.2363 34.242 93.3785 29.9192C93.5399 31.7175 95.6857 32.6349 97.0726 31.4993C97.0746 31.4974 97.0768 31.4958 97.0793 31.4947C97.3733 31.2843 98.7139 30.3288 100.394 29.1324V29.3958H100.395C100.392 29.7364 100.455 30.0744 100.581 30.3901C100.708 30.7058 100.895 30.9931 101.132 31.2352C101.369 31.4773 101.651 31.6694 101.962 31.8005C102.273 31.9316 102.607 31.9991 102.944 31.9989H111.977V31.9967C112.686 32.014 113.392 31.8878 114.052 31.6254C114.713 31.363 115.315 30.9698 115.822 30.4689C116.33 29.9679 116.734 29.3694 117.009 28.7086C117.285 28.0477 117.427 27.3377 117.427 26.6205V19.7431H117.426C117.945 13.5118 126.699 13.5083 127.219 19.7431V30.0036C127.219 30.2663 127.27 30.5264 127.37 30.769C127.47 31.0116 127.616 31.232 127.8 31.4175C127.984 31.603 128.202 31.7499 128.442 31.8498C128.683 31.9498 128.94 32.0008 129.2 32V19.7431H129.196C128.577 10.8614 116.073 10.8523 115.451 19.7431ZM93.3662 25.3511C92.7995 31.5431 84.0788 31.4947 83.5777 25.2982H83.5766V19.7431C84.0821 13.5421 92.8017 13.5041 93.3662 19.6903V25.3511ZM105.833 15.0322C109.306 15.0332 110.576 19.6603 107.683 21.4954C106.42 22.3958 103.596 24.4204 102.372 25.3196V18.656H102.369C102.353 18.1861 102.431 17.7177 102.597 17.2789C102.764 16.84 103.017 16.4396 103.34 16.1014C103.663 15.7633 104.051 15.4943 104.479 15.3106C104.907 15.1269 105.368 15.0322 105.833 15.0322Z" fill="#0093E5"/>
<path d="M3.2 11.6C3.19997 11.1757 3.03094 10.7687 2.73009 10.4687C2.42924 10.1686 2.0212 10 1.59574 10C-0.531612 10.0837 -0.532212 13.1157 1.59574 13.2C2.0212 13.2 2.42924 13.0314 2.73009 12.7313C3.03094 12.4313 3.19997 12.0243 3.2 11.6Z" fill="#0093E5"/>
<path d="M71.9995 22.3999C69.8673 22.4836 69.8661 25.516 71.9995 25.5999C74.1345 25.5153 74.1323 22.4834 71.9995 22.3999Z" fill="#0093E5"/>
<path d="M71.0782 13.7402L64.3968 27.7595L63.7383 29.1402L63.7126 29.1952C63.5913 29.437 63.4056 29.6401 63.1763 29.782C62.947 29.9239 62.6831 29.9989 62.4139 29.9987H54.2418C54.0264 29.9986 53.8197 29.9138 53.6656 29.7624C53.5116 29.611 53.4225 29.4051 53.4174 29.1885C53.4163 29.1743 53.4163 29.16 53.4174 29.1457V27.7247C56.0539 25.8568 59.8582 23.1606 59.9994 23.0573C60.7279 22.5529 61.3235 21.8777 61.7345 21.09C62.1455 20.3023 62.3597 19.4258 62.3586 18.5361C62.0473 11.168 51.5761 11.2865 51.4306 18.6587V26.7176L48.7114 28.6294L47.1833 29.704C47.1035 29.758 47.0107 29.7891 46.9147 29.7941C46.8187 29.799 46.7232 29.7777 46.6384 29.7322C46.5535 29.6868 46.4825 29.6191 46.433 29.5362C46.3835 29.4534 46.3573 29.3585 46.3572 29.2618V19.7456C46.1636 13.6795 38.6991 10.8067 34.5334 15.1164V1.99617C34.5334 1.73388 34.482 1.47415 34.3822 1.23184C34.2823 0.989524 34.136 0.769382 33.9515 0.583994C33.7671 0.398605 33.5481 0.251605 33.3071 0.1514C33.0661 0.0511949 32.8079 -0.000252269 32.5471 9.30061e-07V29.1671C32.5471 29.3874 32.4601 29.5988 32.3052 29.7546C32.1502 29.9105 31.9401 29.998 31.721 29.998H27.2583C27.0392 29.998 26.8291 29.9105 26.6742 29.7546C26.5193 29.5988 26.4322 29.3874 26.4322 29.1671V19.7456C25.807 10.8582 13.2471 10.863 12.6239 19.7456V25.2997C12.1004 31.5346 3.30576 31.529 2.78558 25.2997V17.0427C2.78542 16.5132 2.57615 16.0054 2.20379 15.631C1.83143 15.2567 1.3265 15.0464 0.800049 15.0466V25.2997C1.42534 34.1871 13.9864 34.1823 14.6096 25.2997V19.7456H14.6084C15.1319 13.5107 23.9265 13.5163 24.4467 19.7456V29.3967H24.4478C24.4445 29.7582 24.5169 30.1164 24.6601 30.448C24.8034 30.7795 25.0143 31.0771 25.2793 31.3214C25.5443 31.5656 25.8574 31.7511 26.1982 31.8657C26.5391 31.9804 26.9001 32.0217 27.2578 31.9869V31.999H31.7212V31.9869C32.0807 32.0218 32.4434 31.9798 32.7857 31.8638C33.128 31.7478 33.442 31.5604 33.7073 31.3139C33.9726 31.0674 34.1831 30.7672 34.3251 30.4332C34.4671 30.0991 34.5373 29.7387 34.5312 29.3754H34.5323V19.7456C35.0558 13.5107 43.8492 13.5163 44.3694 19.7456V29.7062C44.3728 31.6247 46.6321 32.6928 48.1001 31.4953C48.1012 31.4953 48.1024 31.4953 48.1024 31.4931C48.4017 31.2792 49.7467 30.3262 51.4305 29.1333V29.3967H51.4317C51.4281 29.7372 51.4917 30.0751 51.6188 30.3907C51.7459 30.7064 51.9339 30.9935 52.172 31.2356C52.4102 31.4776 52.6937 31.6697 53.0061 31.8008C53.3185 31.9319 53.6537 31.9994 53.9923 31.9994H63.0676V31.9972C63.5121 32.0098 63.9506 31.8924 64.3299 31.659C64.7092 31.4257 65.013 31.0866 65.2043 30.6829H65.2053L71.9575 16.5184C71.964 16.5035 71.9748 16.4907 71.9884 16.4818C72.002 16.4729 72.0179 16.4681 72.0341 16.4681C72.0504 16.4681 72.0663 16.4729 72.0799 16.4818C72.0935 16.4907 72.1043 16.5035 72.1108 16.5184L78.9522 30.8686C79.3784 31.8261 80.6436 32.292 81.6001 31.8035C80.4657 29.4226 74.2674 16.4216 72.9911 13.7425C72.9186 13.5463 72.7882 13.3771 72.6174 13.2575C72.4466 13.1379 72.2436 13.0737 72.0355 13.0734C71.8274 13.0732 71.6242 13.1369 71.4531 13.2561C71.282 13.3753 71.1512 13.5442 71.0782 13.7402ZM56.8941 15.0354C60.3849 15.0363 61.6596 19.6627 58.7532 21.4975C57.4842 22.3978 54.6469 24.4221 53.4174 25.3212C53.4174 25.3195 53.4174 18.6578 53.4174 18.6561C53.4011 18.1866 53.4789 17.7186 53.6463 17.28C53.8137 16.8414 54.0672 16.4413 54.3917 16.1034C54.7162 15.7655 55.1049 15.4967 55.5349 15.3133C55.9648 15.1298 56.4271 15.0353 56.8941 15.0354Z" fill="#0093E5"/>
</svg>
