<svg  viewBox="0 0 146 40" fill="none" xmlns="http://www.w3.org/2000/svg">
<path d="M139.659 20.0293C139.764 19.889 139.83 19.7274 139.849 19.559C139.869 19.3906 139.842 19.2205 139.771 19.0636C139.717 18.941 139.639 18.8277 139.543 18.7285C139.445 18.6291 139.326 18.5483 139.194 18.4906C139.055 18.43 138.903 18.3992 138.748 18.4004H137.2V21.6004H137.834V20.4835H138.5L139.286 21.6004H140L139.141 20.3824C139.354 20.3212 139.536 20.1966 139.659 20.0293ZM138.708 19.9865H137.834V18.9122H138.684C138.756 18.9105 138.828 18.9221 138.895 18.9463C138.962 18.9705 139.023 19.0067 139.073 19.0527C139.128 19.1054 139.169 19.1673 139.196 19.2348C139.223 19.3023 139.234 19.374 139.23 19.4456C139.238 19.5869 139.189 19.7261 139.093 19.8383C139.046 19.8879 138.987 19.927 138.92 19.9526C138.853 19.9782 138.781 19.9897 138.708 19.9861V19.9865Z" fill="#FBFCFE"/>
<path d="M141.372 18.8834C141.225 18.55 141.01 18.2491 140.739 17.9991C140.463 17.7469 140.139 17.5481 139.786 17.4134C139.016 17.1291 138.164 17.1291 137.394 17.4134C137.043 17.5481 136.723 17.7469 136.449 17.9991C136.181 18.2493 135.968 18.5503 135.824 18.8834C135.525 19.5972 135.525 20.3958 135.824 21.1096C135.969 21.4434 136.181 21.7454 136.449 21.9974C136.722 22.2517 137.043 22.452 137.394 22.5869C138.164 22.8713 139.016 22.8713 139.786 22.5869C140.14 22.452 140.464 22.2518 140.739 21.9974C141.009 21.7456 141.225 21.4437 141.372 21.1096C141.676 20.3968 141.676 19.5962 141.372 18.8834ZM141.007 21.0049C140.88 21.2993 140.69 21.5648 140.451 21.7844C140.209 22.0037 139.926 22.175 139.617 22.2886C139.288 22.4096 138.939 22.4701 138.588 22.4671C138.231 22.4713 137.877 22.4067 137.546 22.2771C137.24 22.156 136.961 21.9781 136.725 21.7534C136.492 21.5303 136.308 21.2638 136.185 20.9701C136.054 20.6598 135.989 20.3276 135.992 19.9927C135.989 19.6616 136.055 19.3332 136.185 19.027C136.309 18.7356 136.493 18.4717 136.725 18.2512C136.962 18.0287 137.241 17.8523 137.546 17.7316C137.877 17.602 138.231 17.5374 138.588 17.5416C138.944 17.5384 139.298 17.603 139.629 17.7316C139.939 17.8515 140.222 18.0279 140.463 18.2512C140.698 18.4723 140.885 18.7376 141.011 19.0309C141.144 19.3379 141.21 19.6677 141.208 20.0004C141.212 20.3449 141.144 20.6867 141.007 21.0048V21.0049Z" fill="#FBFCFE"/>
<path d="M119.451 23.7431V30.6205H119.453C119.422 31.5258 119.045 32.3835 118.401 33.0134C117.757 33.6433 116.896 33.9962 116 33.9979H107.193C106.978 33.9981 106.772 33.9133 106.619 33.7619C106.466 33.6104 106.377 33.4043 106.372 33.1876C106.371 33.1734 106.371 33.1591 106.372 33.1448V31.7245C108.638 30.1106 111.246 28.2557 112.923 27.0552C113.648 26.5511 114.241 25.8759 114.651 25.088C115.06 24.3001 115.273 23.4233 115.272 22.5334C114.961 15.1641 104.539 15.2826 104.395 22.656V30.7169C103.421 31.4045 101.114 33.0341 100.167 33.7026C100.087 33.7556 99.9946 33.786 99.8993 33.7905C99.804 33.795 99.7092 33.7735 99.625 33.7283C99.5407 33.683 99.47 33.6157 99.4204 33.5334C99.3707 33.4511 99.3439 33.3568 99.3427 33.2603V29.3635C99.3448 29.3421 99.3448 29.3196 99.346 29.2982H99.3427V23.7431H99.346C99.3448 23.7218 99.3448 23.6993 99.3427 23.6778V4C99.0832 3.99983 98.8262 4.05134 98.5864 4.1516C98.3466 4.25185 98.1287 4.39889 97.9451 4.5843C97.7616 4.76971 97.616 4.98986 97.5166 5.23217C97.4173 5.47449 97.3662 5.73421 97.3662 5.9965V19.1098C93.1896 14.8062 85.8139 17.6637 85.6013 23.7431H85.6001V29.2982H85.6013C85.7928 35.3721 93.2363 38.242 97.3785 33.9192C97.5399 35.7175 99.6857 36.6349 101.073 35.4993C101.075 35.4974 101.077 35.4958 101.079 35.4947C101.373 35.2843 102.714 34.3288 104.394 33.1324V33.3958H104.395C104.392 33.7364 104.455 34.0744 104.581 34.3901C104.708 34.7058 104.895 34.9931 105.132 35.2352C105.369 35.4773 105.651 35.6694 105.962 35.8005C106.273 35.9316 106.607 35.9991 106.944 35.9989H115.977V35.9967C116.686 36.014 117.392 35.8878 118.052 35.6254C118.713 35.363 119.315 34.9698 119.822 34.4689C120.33 33.9679 120.734 33.3694 121.009 32.7086C121.285 32.0477 121.427 31.3378 121.427 30.6205V23.7431H121.426C121.945 17.5118 130.699 17.5083 131.219 23.7431V34.0036C131.219 34.2663 131.27 34.5264 131.37 34.769C131.47 35.0116 131.616 35.232 131.8 35.4175C131.984 35.603 132.202 35.7499 132.442 35.8498C132.683 35.9498 132.94 36.0008 133.2 36V23.7431H133.196C132.577 14.8614 120.073 14.8523 119.451 23.7431ZM97.3662 29.3511C96.7995 35.5431 88.0788 35.4947 87.5777 29.2982H87.5766V23.7431C88.0821 17.5421 96.8017 17.5041 97.3662 23.6903V29.3511ZM109.833 19.0322C113.306 19.0332 114.576 23.6603 111.683 25.4954C110.42 26.3958 107.596 28.4204 106.372 29.3196V22.656H106.369C106.353 22.1861 106.431 21.7177 106.597 21.2789C106.764 20.84 107.017 20.4396 107.34 20.1014C107.663 19.7633 108.051 19.4943 108.479 19.3106C108.907 19.1269 109.368 19.0322 109.833 19.0322V19.0322Z" fill="#FBFCFE"/>
<path d="M7.2 15.6C7.19997 15.1757 7.03094 14.7687 6.73009 14.4687C6.42924 14.1686 6.0212 14 5.59574 14C3.46839 14.0837 3.46779 17.1157 5.59574 17.2C6.0212 17.2 6.42924 17.0314 6.73009 16.7313C7.03094 16.4313 7.19997 16.0243 7.2 15.6Z" fill="#FBFCFE"/>
<path d="M75.9995 26.4004C73.8673 26.4841 73.8661 29.5165 75.9995 29.6004C78.1345 29.5158 78.1323 26.4839 75.9995 26.4004Z" fill="#FBFCFE"/>
<path d="M75.0782 17.7402L68.3968 31.7595L67.7383 33.1402L67.7126 33.1952C67.5913 33.437 67.4056 33.6401 67.1763 33.782C66.947 33.9239 66.6831 33.9989 66.4139 33.9987H58.2418C58.0264 33.9986 57.8197 33.9138 57.6656 33.7624C57.5116 33.611 57.4225 33.4051 57.4174 33.1885C57.4163 33.1743 57.4163 33.16 57.4174 33.1457V31.7247C60.0539 29.8568 63.8582 27.1606 63.9994 27.0573C64.7279 26.5529 65.3235 25.8777 65.7345 25.09C66.1455 24.3023 66.3597 23.4258 66.3586 22.5361C66.0473 15.168 55.5761 15.2865 55.4306 22.6587V30.7176L52.7114 32.6294L51.1833 33.704C51.1035 33.758 51.0107 33.7891 50.9147 33.7941C50.8187 33.799 50.7232 33.7777 50.6384 33.7322C50.5535 33.6868 50.4825 33.6191 50.433 33.5362C50.3835 33.4534 50.3573 33.3585 50.3572 33.2618V23.7456C50.1636 17.6795 42.6991 14.8067 38.5334 19.1164V5.99617C38.5334 5.73388 38.482 5.47415 38.3822 5.23184C38.2823 4.98952 38.136 4.76938 37.9515 4.58399C37.7671 4.39861 37.5481 4.25161 37.3071 4.1514C37.0661 4.05119 36.8079 3.99975 36.5471 4V33.1671C36.5471 33.3874 36.4601 33.5988 36.3052 33.7546C36.1502 33.9105 35.9401 33.998 35.721 33.998H31.2583C31.0392 33.998 30.8291 33.9105 30.6742 33.7546C30.5193 33.5988 30.4322 33.3874 30.4322 33.1671V23.7456C29.807 14.8582 17.2471 14.863 16.6239 23.7456V29.2997C16.1004 35.5346 7.30576 35.529 6.78558 29.2997V21.0427C6.78542 20.5132 6.57615 20.0054 6.20379 19.631C5.83143 19.2567 5.3265 19.0464 4.80005 19.0466V29.2997C5.42534 38.1871 17.9864 38.1823 18.6096 29.2997V23.7456H18.6084C19.1319 17.5107 27.9265 17.5163 28.4467 23.7456V33.3967H28.4478C28.4445 33.7582 28.5169 34.1164 28.6601 34.448C28.8034 34.7795 29.0143 35.0771 29.2793 35.3214C29.5443 35.5656 29.8574 35.7511 30.1982 35.8657C30.5391 35.9804 30.9001 36.0217 31.2578 35.9869V35.999H35.7212V35.9869C36.0807 36.0218 36.4434 35.9798 36.7857 35.8638C37.128 35.7478 37.442 35.5604 37.7073 35.3139C37.9726 35.0674 38.1831 34.7672 38.3251 34.4332C38.4671 34.0991 38.5373 33.7387 38.5312 33.3754H38.5323V23.7456C39.0558 17.5107 47.8492 17.5163 48.3694 23.7456V33.7062C48.3728 35.6247 50.6321 36.6928 52.1001 35.4953C52.1012 35.4953 52.1024 35.4953 52.1024 35.4931C52.4017 35.2792 53.7467 34.3262 55.4305 33.1333V33.3967H55.4317C55.4281 33.7372 55.4917 34.0751 55.6188 34.3907C55.7459 34.7064 55.9339 34.9935 56.172 35.2356C56.4102 35.4776 56.6937 35.6697 57.0061 35.8008C57.3185 35.9319 57.6537 35.9994 57.9923 35.9994H67.0676V35.9972C67.5121 36.0098 67.9506 35.8924 68.3299 35.659C68.7092 35.4257 69.013 35.0866 69.2043 34.6829H69.2053L75.9575 20.5184C75.964 20.5035 75.9748 20.4907 75.9884 20.4818C76.002 20.4729 76.0179 20.4681 76.0341 20.4681C76.0504 20.4681 76.0663 20.4729 76.0799 20.4818C76.0935 20.4907 76.1043 20.5035 76.1108 20.5184L82.9522 34.8686C83.3784 35.8261 84.6436 36.292 85.6001 35.8035C84.4657 33.4226 78.2674 20.4216 76.9911 17.7425C76.9186 17.5463 76.7882 17.3771 76.6174 17.2575C76.4466 17.1379 76.2436 17.0737 76.0355 17.0734C75.8274 17.0732 75.6242 17.1369 75.4531 17.2561C75.282 17.3753 75.1512 17.5442 75.0782 17.7402ZM60.8941 19.0354C64.3849 19.0363 65.6596 23.6627 62.7532 25.4975C61.4842 26.3978 58.6469 28.4221 57.4174 29.3212C57.4174 29.3195 57.4174 22.6578 57.4174 22.6561C57.4011 22.1866 57.4789 21.7186 57.6463 21.28C57.8137 20.8414 58.0672 20.4413 58.3917 20.1034C58.7162 19.7655 59.1049 19.4967 59.5349 19.3133C59.9648 19.1298 60.4271 19.0353 60.8941 19.0354Z" fill="#FBFCFE"/>
</svg>
