<svg xmlns="http://www.w3.org/2000/svg" viewBox="0 0 1280 640"><defs><style>.cls-1{fill:#0093e5;}</style></defs><g id="_18:9-2" data-name="18:9"><path class="cls-1" d="M1200.116,254.422a9.645,9.645,0,0,0,.942-9.015,10.874,10.874,0,0,0-1.917-3.128,9.292,9.292,0,0,0-2.927-2.22,8.36,8.36,0,0,0-3.734-.842H1179.5v29.871h5.315V258.66h5.583l6.593,10.428h5.988l-7.2-11.37A8.2,8.2,0,0,0,1200.116,254.422Zm-7.972-.4h-7.332V243.994h7.13a4.43,4.43,0,0,1,3.264,1.312,4.958,4.958,0,0,1,1.311,3.667,5.557,5.557,0,0,1-1.144,3.666A3.96,3.96,0,0,1,1192.144,254.018Z"/><path class="cls-1" d="M1213.5,244.532a23.072,23.072,0,0,0-5.315-7.669,25.045,25.045,0,0,0-8.005-5.08,28.188,28.188,0,0,0-20.082,0,24.693,24.693,0,0,0-7.938,5.08,22.868,22.868,0,0,0-5.248,7.669,25.679,25.679,0,0,0,0,19.309,23.237,23.237,0,0,0,5.248,7.7,24.344,24.344,0,0,0,7.938,5.113,28.174,28.174,0,0,0,20.082,0,24.688,24.688,0,0,0,8.005-5.113,23.445,23.445,0,0,0,5.315-7.7,25.269,25.269,0,0,0,0-19.309Zm-3.061,18.4a19.977,19.977,0,0,1-4.675,6.761,21.222,21.222,0,0,1-7,4.373,23.741,23.741,0,0,1-8.645,1.547,22.58,22.58,0,0,1-8.746-1.647,21.322,21.322,0,0,1-6.9-4.542,20.43,20.43,0,0,1-4.541-6.794,21.959,21.959,0,0,1-1.614-8.477,21.538,21.538,0,0,1,1.614-8.376,20.16,20.16,0,0,1,4.541-6.727,21.6,21.6,0,0,1,6.9-4.508,22.58,22.58,0,0,1,8.746-1.648,22.912,22.912,0,0,1,8.746,1.648,21.823,21.823,0,0,1,7,4.508,20.273,20.273,0,0,1,4.609,6.761,21.4,21.4,0,0,1,1.648,8.409A21.951,21.951,0,0,1,1210.443,262.932Z"/><path class="cls-1" d="M1030.967,285.254v57.1h.019a29.049,29.049,0,0,1-28.975,28.041H928.1a6.885,6.885,0,0,1-6.887-6.728,2.337,2.337,0,0,1,0-.355V351.52c19.015-13.4,40.9-28.8,54.97-38.767A45.481,45.481,0,0,0,995.9,275.21c-2.607-61.184-90.065-60.2-91.28,1.018v66.93c-8.166,5.709-27.527,19.239-35.478,24.789a4.463,4.463,0,0,1-6.914-3.672V331.917c.018-.178.018-.364.027-.542h-.027V285.254h.027c-.009-.177-.009-.364-.027-.542V121.336a16.575,16.575,0,0,0-16.586,16.576V246.786c-35.048-35.731-96.942-12.007-98.726,38.468h-.01v46.121h.01c1.606,50.429,64.07,74.256,98.829,38.366,1.355,14.932,19.36,22.547,31,13.119a.206.206,0,0,1,.056-.038c2.467-1.747,13.717-9.68,27.816-19.612V365.4h.01a21.379,21.379,0,0,0,21.388,21.612h75.8v-.019a44.661,44.661,0,0,0,45.739-44.635v-57.1h-.01c4.354-51.737,77.815-51.765,82.179,0v85.188a16.57,16.57,0,0,0,16.623,16.575V285.254h-.037C1141.112,211.513,1036.19,211.438,1030.967,285.254Zm-185.325,46.56c-4.756,51.41-77.936,51.008-82.141-.439h-.01V285.254c4.242-51.484,77.414-51.8,82.151-.439Zm104.613-85.673c29.149.009,39.8,38.425,15.53,53.661-10.6,7.476-34.3,24.285-44.57,31.751V276.228h-.028A29.091,29.091,0,0,1,950.255,246.141Z"/><path class="cls-1" d="M78.886,229.621a13.378,13.378,0,0,0,0-26.756C61.146,203.567,61.14,228.916,78.886,229.621Z"/><path class="cls-1" d="M667.222,309.3c-17.735.7-17.744,26.05,0,26.751C684.98,335.34,684.957,309.994,667.222,309.3Z"/><path class="cls-1" d="M658.71,235.386,602.9,351.8l-5.5,11.465-.215.458a12.143,12.143,0,0,1-10.848,6.672H518.076a6.891,6.891,0,0,1-6.886-6.728,2.337,2.337,0,0,1,0-.355v-11.8c22.023-15.511,53.8-37.9,54.979-38.758a45.5,45.5,0,0,0,19.706-37.543c-2.6-61.184-90.065-60.2-91.28,1.018v66.92L471.88,359.024l-12.763,8.923a4.429,4.429,0,0,1-6.906-3.672V285.254c-1.616-50.372-63.967-74.227-98.764-38.44V137.865a16.574,16.574,0,0,0-16.585-16.576v242.2a6.9,6.9,0,0,1-6.9,6.9H292.685a6.9,6.9,0,0,1-6.9-6.9V285.254c-5.223-73.8-110.136-73.76-115.34,0v46.121c-4.373,51.774-77.834,51.727-82.179,0V262.81a16.581,16.581,0,0,0-16.585-16.576v85.141c5.223,73.8,110.145,73.76,115.349,0V285.254h-.009c4.373-51.774,77.834-51.727,82.179,0V365.4h.009a21.414,21.414,0,0,0,23.472,21.509v.1h37.281v-.1a21.423,21.423,0,0,0,23.473-21.687h.008V285.254c4.373-51.774,77.825-51.727,82.17,0v82.712c.028,15.931,18.9,24.8,31.162,14.856.009,0,.018,0,.018-.019,2.5-1.775,13.736-9.689,27.8-19.593V365.4h.01a21.384,21.384,0,0,0,21.388,21.612H591.8v-.019a19.17,19.17,0,0,0,17.847-10.913h.009l56.4-117.62a.7.7,0,0,1,1.28,0l57.147,119.161c3.56,7.953,14.128,11.821,22.117,7.766-9.475-19.772-61.249-127.73-71.91-149.978A8.527,8.527,0,0,0,658.71,235.386ZM540.23,246.141c29.158.009,39.807,38.425,15.53,53.661-10.6,7.476-34.3,24.285-44.57,31.751,0-.014,0-55.332,0-55.346A29.052,29.052,0,0,1,540.23,246.141Z"/><path class="cls-1" d="M116.868,440.07a15.731,15.731,0,0,0-2.717-5.094,13.946,13.946,0,0,0-4.329-3.566,12.1,12.1,0,0,0-5.773-1.358H80.109L67.291,490.326h7.64l4.584-21.648H96.239a18.028,18.028,0,0,0,8.32-2,23.736,23.736,0,0,0,6.834-5.22,25.97,25.97,0,0,0,4.669-7.3,20.627,20.627,0,0,0,1.74-8.15A19.2,19.2,0,0,0,116.868,440.07Zm-7.895,12.267a16.825,16.825,0,0,1-2.759,4.881,13.764,13.764,0,0,1-4.075,3.395,10.045,10.045,0,0,1-4.881,1.274h-16.3l5.348-25.044H102.1a6.958,6.958,0,0,1,5.687,2.76,11,11,0,0,1,2.208,7.088A16.181,16.181,0,0,1,108.973,452.337Z"/><path class="cls-1" d="M148.023,445.969c-.339-.027-.764-.042-1.273-.042a14.228,14.228,0,0,0-8.192,2.886,30.24,30.24,0,0,0-7.343,7.471l2.207-10.272H126.46l-9.422,44.314h7.47l5.773-27.336a19.83,19.83,0,0,1,7.343-7.555,20.716,20.716,0,0,1,9.975-2.886l1.358-6.452A8.871,8.871,0,0,0,148.023,445.969Z"/><path class="cls-1" d="M187.073,450.723a16.259,16.259,0,0,0-5.39-3.989,16.981,16.981,0,0,0-7.259-1.486,23.974,23.974,0,0,0-10.314,2.292,28.353,28.353,0,0,0-8.532,6.112,29.383,29.383,0,0,0-5.772,8.744,25.672,25.672,0,0,0-2.123,10.272,22.789,22.789,0,0,0,1.1,7.173,16.921,16.921,0,0,0,3.268,5.858,15.776,15.776,0,0,0,5.348,3.99,17,17,0,0,0,7.259,1.486,24.17,24.17,0,0,0,10.4-2.292,29.008,29.008,0,0,0,14.389-14.856,25.5,25.5,0,0,0,2.123-10.187,22.417,22.417,0,0,0-1.146-7.216A17.084,17.084,0,0,0,187.073,450.723Zm-4.839,21.733a21.726,21.726,0,0,1-4.032,6.324,20.187,20.187,0,0,1-5.645,4.33,13.962,13.962,0,0,1-6.452,1.613,9.735,9.735,0,0,1-4.415-.976,9.992,9.992,0,0,1-3.353-2.717,12.672,12.672,0,0,1-2.165-4.117,16.85,16.85,0,0,1-.763-5.179,19.59,19.59,0,0,1,1.528-7.64,22.184,22.184,0,0,1,4.032-6.409,19.618,19.618,0,0,1,5.688-4.372,14.059,14.059,0,0,1,6.409-1.613,9.476,9.476,0,0,1,4.372,1.018,10.4,10.4,0,0,1,3.4,2.759A12.708,12.708,0,0,1,183,459.6a16.848,16.848,0,0,1,.764,5.178A19.489,19.489,0,0,1,182.234,472.456Z"/><path class="cls-1" d="M235.376,454.841a18.012,18.012,0,0,0-5.051-6.876,12.909,12.909,0,0,0-8.532-2.717,20.92,20.92,0,0,0-9.55,2.292,27.056,27.056,0,0,0-7.98,6.112,30.076,30.076,0,0,0-5.475,8.787,26.91,26.91,0,0,0-2.038,10.314,23.12,23.12,0,0,0,1.019,6.919,17.988,17.988,0,0,0,2.971,5.773,13.809,13.809,0,0,0,11.206,5.39,19.359,19.359,0,0,0,9.041-2.377,23.13,23.13,0,0,0,7.682-6.451l-1.612,7.81a18.083,18.083,0,0,1-2.42,6.027,16.218,16.218,0,0,1-3.947,4.245,16.679,16.679,0,0,1-5.051,2.546,19.13,19.13,0,0,1-5.646.849,16.209,16.209,0,0,1-8.064-1.952,11.953,11.953,0,0,1-5.179-5.858l-5.093,3.82a16.5,16.5,0,0,0,6.027,7.131q3.988,2.631,11.121,2.632a30.307,30.307,0,0,0,8.744-1.273,25.88,25.88,0,0,0,7.682-3.736,23.481,23.481,0,0,0,5.858-6.07,23.8,23.8,0,0,0,3.438-8.361l9.338-43.805h-6.621Zm-5.093,19.95a14.874,14.874,0,0,1-2.42,3.65,20.206,20.206,0,0,1-3.565,3.183,19.087,19.087,0,0,1-4.245,2.25,12.538,12.538,0,0,1-4.457.849,9.765,9.765,0,0,1-4.584-1.061,10.914,10.914,0,0,1-3.481-2.844,13.327,13.327,0,0,1-2.249-4.16,15.7,15.7,0,0,1-.807-5.093,19.478,19.478,0,0,1,1.359-6.962,22.251,22.251,0,0,1,3.735-6.409,20.489,20.489,0,0,1,5.56-4.669,13.521,13.521,0,0,1,6.834-1.825,10.2,10.2,0,0,1,3.905.764,10.335,10.335,0,0,1,3.311,2.165,13.581,13.581,0,0,1,2.462,3.268,12.426,12.426,0,0,1,1.358,4.16Z"/><path class="cls-1" d="M277.143,445.969c-.339-.027-.764-.042-1.273-.042a14.228,14.228,0,0,0-8.192,2.886,30.24,30.24,0,0,0-7.343,7.471l2.207-10.272h-6.961l-9.424,44.314h7.471L259.4,462.99a19.83,19.83,0,0,1,7.343-7.555,20.716,20.716,0,0,1,9.975-2.886l1.358-6.452A8.871,8.871,0,0,0,277.143,445.969Z"/><path class="cls-1" d="M314.453,448.261q-4.033-3.011-10.569-3.013a25.43,25.43,0,0,0-10.7,2.25,27.958,27.958,0,0,0-8.575,6.027,27.6,27.6,0,0,0-5.688,8.7,26.617,26.617,0,0,0-2.037,10.272,22.683,22.683,0,0,0,1.146,7.3,17.148,17.148,0,0,0,3.4,5.943,15.812,15.812,0,0,0,5.475,3.99,17.937,17.937,0,0,0,7.386,1.443,22.642,22.642,0,0,0,6.155-.849,27.329,27.329,0,0,0,5.73-2.335,27.01,27.01,0,0,0,5.009-3.523,20.436,20.436,0,0,0,3.82-4.5l-6.027-1.783a15.2,15.2,0,0,1-5.858,5.391,16.045,16.045,0,0,1-7.64,2,10.588,10.588,0,0,1-4.882-1.062,9.689,9.689,0,0,1-3.438-2.886,12.855,12.855,0,0,1-2.037-4.2,18.084,18.084,0,0,1-.68-5.008v-.934a6.137,6.137,0,0,1,.085-1.019q2.716.255,5.221.339t4.542.085q12.393,0,18.294-3.438a11.122,11.122,0,0,0,5.9-10.229Q318.485,451.277,314.453,448.261Zm-3.565,12.31a7.411,7.411,0,0,1-2.929,2.716,17.877,17.877,0,0,1-5.306,1.783,43.31,43.31,0,0,1-8.108.637q-1.953,0-4.2-.085t-4.8-.34a26.58,26.58,0,0,1,2.334-5.305,19.973,19.973,0,0,1,3.651-4.627,16.637,16.637,0,0,1,11.673-4.5,11.252,11.252,0,0,1,6.239,1.528,5.28,5.28,0,0,1,2.335,4.754A6.852,6.852,0,0,1,310.888,460.571Z"/><path class="cls-1" d="M352.187,468.975a18.754,18.754,0,0,0-4.457-2.164q-2.675-.933-6.155-1.868a30.638,30.638,0,0,1-6.409-2.292,3.7,3.7,0,0,1-2-3.481,7.9,7.9,0,0,1,.85-3.735,7.582,7.582,0,0,1,2.334-2.674,10.408,10.408,0,0,1,3.4-1.571,15.951,15.951,0,0,1,4.117-.509,16.8,16.8,0,0,1,6.409,1.231,14.1,14.1,0,0,1,5.221,3.693l4.33-4.5a17.385,17.385,0,0,0-6.113-4.245,21.229,21.229,0,0,0-8.489-1.613,24.443,24.443,0,0,0-7.343,1.1,19.985,19.985,0,0,0-6.2,3.14,15.689,15.689,0,0,0-4.287,4.967,13.575,13.575,0,0,0-1.613,6.664,6.909,6.909,0,0,0,.764,3.353,7.6,7.6,0,0,0,2.292,2.5,15.983,15.983,0,0,0,3.82,1.953q2.292.849,5.433,1.7a41.358,41.358,0,0,1,7.6,2.631,4.205,4.205,0,0,1,2.5,3.991,7.2,7.2,0,0,1-3.14,6.111,13.641,13.641,0,0,1-8.235,2.293,18.421,18.421,0,0,1-7.47-1.486,21.82,21.82,0,0,1-6.453-4.457l-4.244,5.009a18.414,18.414,0,0,0,7.471,4.8,28.258,28.258,0,0,0,9.677,1.656,26.948,26.948,0,0,0,8.023-1.146,19.322,19.322,0,0,0,6.324-3.226,15.236,15.236,0,0,0,4.118-4.924,13.461,13.461,0,0,0,1.485-6.325,7.533,7.533,0,0,0-.892-3.777A8.623,8.623,0,0,0,352.187,468.975Z"/><path class="cls-1" d="M376.677,452.761a10.4,10.4,0,0,1,3.4-1.571,15.951,15.951,0,0,1,4.117-.509,16.807,16.807,0,0,1,6.41,1.231,14.1,14.1,0,0,1,5.22,3.693l4.33-4.5a17.39,17.39,0,0,0-6.112-4.245,21.237,21.237,0,0,0-8.49-1.613,24.443,24.443,0,0,0-7.343,1.1,19.985,19.985,0,0,0-6.2,3.14,15.7,15.7,0,0,0-4.287,4.967,13.586,13.586,0,0,0-1.613,6.664,6.909,6.909,0,0,0,.764,3.353,7.606,7.606,0,0,0,2.292,2.5,15.983,15.983,0,0,0,3.82,1.953q2.293.849,5.434,1.7a41.414,41.414,0,0,1,7.6,2.631,4.207,4.207,0,0,1,2.5,3.991,7.2,7.2,0,0,1-3.141,6.111,13.641,13.641,0,0,1-8.235,2.293,18.424,18.424,0,0,1-7.47-1.486,21.8,21.8,0,0,1-6.452-4.457l-4.245,5.009a18.421,18.421,0,0,0,7.471,4.8,28.264,28.264,0,0,0,9.678,1.656,26.946,26.946,0,0,0,8.022-1.146,19.322,19.322,0,0,0,6.324-3.226,15.211,15.211,0,0,0,4.118-4.924,13.461,13.461,0,0,0,1.485-6.325,7.543,7.543,0,0,0-.891-3.777,8.638,8.638,0,0,0-2.674-2.8,18.754,18.754,0,0,0-4.457-2.164q-2.675-.933-6.155-1.868a30.66,30.66,0,0,1-6.409-2.292,3.7,3.7,0,0,1-1.995-3.481,7.9,7.9,0,0,1,.849-3.735A7.592,7.592,0,0,1,376.677,452.761Z"/><path class="cls-1" d="M444.8,431.241h-7.47l-3.141,14.771H428.5l-1.273,5.858H433l-6.367,29.8a12.536,12.536,0,0,0-.255,2.462q0,3.565,2.25,5.178a9.593,9.593,0,0,0,5.73,1.613,23.585,23.585,0,0,0,6.41-.849,14.741,14.741,0,0,0,4.542-1.952l-.425-5.943a23.163,23.163,0,0,1-2.632,1.146,10.952,10.952,0,0,1-3.989.722,4.467,4.467,0,0,1-2.717-.807,2.989,2.989,0,0,1-1.1-2.589,7.077,7.077,0,0,1,.17-1.273l5.858-27.5h9.338l1.273-5.858h-9.423Z"/><path class="cls-1" d="M484.532,445.248a19.817,19.817,0,0,0-9.89,2.717,26.741,26.741,0,0,0-8.362,7.555l5.772-27.166h-7.47l-13.158,61.972h7.47l5.688-26.741a19.537,19.537,0,0,1,3.056-4.669,24.032,24.032,0,0,1,3.99-3.651,20.574,20.574,0,0,1,4.33-2.419,11.321,11.321,0,0,1,4.244-.892q6.537,0,6.537,7.81a22.308,22.308,0,0,1-.17,2.675q-.171,1.4-.509,3.1L480.8,490.326h7.471l5.6-26.486a35.6,35.6,0,0,0,.849-7.556,12.96,12.96,0,0,0-2.292-7.98Q490.134,445.247,484.532,445.248Z"/><path class="cls-1" d="M530.542,445.969c-.339-.027-.764-.042-1.273-.042a14.228,14.228,0,0,0-8.192,2.886,30.261,30.261,0,0,0-7.344,7.471l2.208-10.272H508.98l-9.423,44.314h7.47L512.8,462.99a19.83,19.83,0,0,1,7.343-7.555,20.716,20.716,0,0,1,9.975-2.886l1.358-6.452A8.871,8.871,0,0,0,530.542,445.969Z"/><path class="cls-1" d="M569.592,450.723a16.259,16.259,0,0,0-5.39-3.989,16.984,16.984,0,0,0-7.259-1.486,23.974,23.974,0,0,0-10.314,2.292,28.353,28.353,0,0,0-8.532,6.112,29.345,29.345,0,0,0-5.772,8.744,25.672,25.672,0,0,0-2.123,10.272,22.789,22.789,0,0,0,1.1,7.173,16.921,16.921,0,0,0,3.268,5.858,15.776,15.776,0,0,0,5.348,3.99,17,17,0,0,0,7.259,1.486,24.17,24.17,0,0,0,10.4-2.292,29.008,29.008,0,0,0,14.389-14.856,25.5,25.5,0,0,0,2.123-10.187,22.417,22.417,0,0,0-1.146-7.216A17.068,17.068,0,0,0,569.592,450.723Zm-4.839,21.733a21.726,21.726,0,0,1-4.032,6.324,20.187,20.187,0,0,1-5.645,4.33,13.962,13.962,0,0,1-6.452,1.613,9.728,9.728,0,0,1-4.414-.976,9.986,9.986,0,0,1-3.354-2.717,12.672,12.672,0,0,1-2.165-4.117,16.85,16.85,0,0,1-.764-5.179,19.591,19.591,0,0,1,1.529-7.64,22.184,22.184,0,0,1,4.032-6.409,19.618,19.618,0,0,1,5.688-4.372,14.059,14.059,0,0,1,6.409-1.613,9.476,9.476,0,0,1,4.372,1.018,10.4,10.4,0,0,1,3.4,2.759,12.708,12.708,0,0,1,2.165,4.118,16.848,16.848,0,0,1,.764,5.178A19.489,19.489,0,0,1,564.753,472.456Z"/><path class="cls-1" d="M616.367,482.261a2.915,2.915,0,0,1,.043-.509q.042-.255.127-.6l7.47-35.145h-7.47l-5.858,27.76a24,24,0,0,1-7.343,8.022,15.451,15.451,0,0,1-8.617,2.929q-6.621,0-6.621-7.725a28.21,28.21,0,0,1,.764-5.858l5.348-25.128h-7.385l-5.688,26.571a36.773,36.773,0,0,0-.934,7.386q0,11.207,10.357,11.206a22.884,22.884,0,0,0,10.611-2.674,26.663,26.663,0,0,0,9-7.683q-.6,2.718-.764,4.032a17.071,17.071,0,0,0-.17,2.08,3.4,3.4,0,0,0,1.188,2.717,5.215,5.215,0,0,0,3.481,1.019,11.742,11.742,0,0,0,1.316-.085q.72-.086,1.655-.255l1.359-6.452Q616.366,483.79,616.367,482.261Z"/><path class="cls-1" d="M666.878,454.841a18.022,18.022,0,0,0-5.051-6.876,12.911,12.911,0,0,0-8.532-2.717,20.917,20.917,0,0,0-9.55,2.292,27.043,27.043,0,0,0-7.98,6.112,30.079,30.079,0,0,0-5.476,8.787,26.928,26.928,0,0,0-2.037,10.314,23.088,23.088,0,0,0,1.019,6.919,17.968,17.968,0,0,0,2.971,5.773,13.805,13.805,0,0,0,11.205,5.39,19.359,19.359,0,0,0,9.041-2.377,23.124,23.124,0,0,0,7.683-6.451l-1.613,7.81a18.082,18.082,0,0,1-2.419,6.027,16.222,16.222,0,0,1-3.948,4.245,16.656,16.656,0,0,1-5.051,2.546,19.123,19.123,0,0,1-5.645.849,16.213,16.213,0,0,1-8.065-1.952,11.951,11.951,0,0,1-5.178-5.858l-5.094,3.82a16.5,16.5,0,0,0,6.028,7.131q3.989,2.631,11.121,2.632a30.3,30.3,0,0,0,8.743-1.273,25.874,25.874,0,0,0,7.683-3.736,23.481,23.481,0,0,0,5.858-6.07,23.8,23.8,0,0,0,3.438-8.361l9.338-43.805h-6.621Zm-5.094,19.95a14.841,14.841,0,0,1-2.419,3.65,20.213,20.213,0,0,1-3.566,3.183,19.058,19.058,0,0,1-4.244,2.25,12.538,12.538,0,0,1-4.457.849,9.765,9.765,0,0,1-4.584-1.061,10.9,10.9,0,0,1-3.481-2.844,13.349,13.349,0,0,1-2.25-4.16,15.73,15.73,0,0,1-.806-5.093,19.476,19.476,0,0,1,1.358-6.962,22.274,22.274,0,0,1,3.735-6.409,20.493,20.493,0,0,1,5.561-4.669,13.521,13.521,0,0,1,6.834-1.825,10.208,10.208,0,0,1,3.9.764,10.335,10.335,0,0,1,3.311,2.165,13.633,13.633,0,0,1,2.462,3.268,12.426,12.426,0,0,1,1.358,4.16Z"/><path class="cls-1" d="M710.767,445.248a19.823,19.823,0,0,0-9.89,2.717,26.763,26.763,0,0,0-8.362,7.555l5.773-27.166h-7.471l-13.158,61.972h7.471l5.687-26.741a19.511,19.511,0,0,1,3.057-4.669,24.026,24.026,0,0,1,3.989-3.651,20.6,20.6,0,0,1,4.33-2.419,11.321,11.321,0,0,1,4.245-.892q6.535,0,6.537,7.81a22.308,22.308,0,0,1-.17,2.675q-.172,1.4-.51,3.1l-5.263,24.789h7.47l5.6-26.486a35.6,35.6,0,0,0,.849-7.556,12.96,12.96,0,0,0-2.292-7.98Q716.37,445.247,710.767,445.248Z"/><polygon class="cls-1" points="748.033 490.326 755.674 490.326 768.493 430.137 760.852 430.137 748.033 490.326"/><path class="cls-1" d="M802.449,445.248a22.844,22.844,0,0,0-10.866,2.8,25.959,25.959,0,0,0-8.744,7.47l2.037-9.508h-6.791l-9.423,44.314h7.47l5.688-26.741a21.786,21.786,0,0,1,3.141-4.669,22.47,22.47,0,0,1,4.075-3.651,21.313,21.313,0,0,1,4.542-2.419,12.492,12.492,0,0,1,4.457-.892q6.027,0,6.027,7.216a31.577,31.577,0,0,1-.764,6.367l-5.263,24.789h7.47l5.6-26.486q.425-2.208.722-4.245a27.233,27.233,0,0,0,.3-3.905,12.236,12.236,0,0,0-2.165-7.6Q807.8,445.248,802.449,445.248Z"/><path class="cls-1" d="M850.582,445.248a22.844,22.844,0,0,0-10.866,2.8,25.959,25.959,0,0,0-8.744,7.47l2.037-9.508h-6.791L816.8,490.326h7.471l5.687-26.741a21.786,21.786,0,0,1,3.141-4.669,22.436,22.436,0,0,1,4.075-3.651,21.29,21.29,0,0,1,4.542-2.419,12.492,12.492,0,0,1,4.457-.892q6.027,0,6.027,7.216a31.65,31.65,0,0,1-.764,6.367l-5.263,24.789h7.47l5.6-26.486q.423-2.208.722-4.245a27.233,27.233,0,0,0,.3-3.905,12.236,12.236,0,0,0-2.165-7.6Q855.931,445.248,850.582,445.248Z"/><path class="cls-1" d="M905.761,450.723a16.253,16.253,0,0,0-5.391-3.989,16.976,16.976,0,0,0-7.258-1.486A23.971,23.971,0,0,0,882.8,447.54a28.353,28.353,0,0,0-8.532,6.112,29.367,29.367,0,0,0-5.773,8.744,25.688,25.688,0,0,0-2.122,10.272,22.76,22.76,0,0,0,1.1,7.173,16.921,16.921,0,0,0,3.268,5.858,15.766,15.766,0,0,0,5.348,3.99,17,17,0,0,0,7.259,1.486,24.17,24.17,0,0,0,10.4-2.292,29.008,29.008,0,0,0,14.389-14.856,25.5,25.5,0,0,0,2.122-10.187,22.417,22.417,0,0,0-1.146-7.216A17.082,17.082,0,0,0,905.761,450.723Zm-4.839,21.733a21.747,21.747,0,0,1-4.032,6.324,20.2,20.2,0,0,1-5.645,4.33,13.962,13.962,0,0,1-6.452,1.613,9.732,9.732,0,0,1-4.415-.976,9.992,9.992,0,0,1-3.353-2.717,12.672,12.672,0,0,1-2.165-4.117,16.85,16.85,0,0,1-.764-5.179,19.59,19.59,0,0,1,1.528-7.64,22.186,22.186,0,0,1,4.033-6.409,19.592,19.592,0,0,1,5.688-4.372,14.056,14.056,0,0,1,6.409-1.613,9.482,9.482,0,0,1,4.372,1.018,10.406,10.406,0,0,1,3.4,2.759,12.706,12.706,0,0,1,2.164,4.118,16.848,16.848,0,0,1,.764,5.178A19.488,19.488,0,0,1,900.922,472.456Z"/><path class="cls-1" d="M941.373,464.9a160.188,160.188,0,0,1-11.842,18.888l-5.009-37.777H916.8l7.046,44.314h8.065a174.816,174.816,0,0,0,14.814-22.157,99.8,99.8,0,0,0,9.21-22.157H948.8A86.92,86.92,0,0,1,941.373,464.9Z"/><path class="cls-1" d="M996,481.157l7.471-35.145H996l-1.952,8.829a15.331,15.331,0,0,0-4.8-6.834,12.861,12.861,0,0,0-8.446-2.759,20.07,20.07,0,0,0-9.3,2.292,26.352,26.352,0,0,0-7.81,6.112,31.047,31.047,0,0,0-5.391,8.787,26.929,26.929,0,0,0-2.038,10.314,23.326,23.326,0,0,0,1.062,7.088,17.538,17.538,0,0,0,3.1,5.858,15.147,15.147,0,0,0,4.965,3.99,14.544,14.544,0,0,0,6.665,1.486,19.986,19.986,0,0,0,9.253-2.42,23.69,23.69,0,0,0,7.98-6.748,26.891,26.891,0,0,0-.764,4.838,3.468,3.468,0,0,0,1.231,2.759,5.374,5.374,0,0,0,3.608,1.062,11.742,11.742,0,0,0,1.316-.085q.72-.086,1.655-.255l1.358-6.452q-1.868-.084-1.867-1.613a3.014,3.014,0,0,1,.042-.509Q995.917,481.5,996,481.157Zm-6.112-6.366a13.046,13.046,0,0,1-2.547,3.862,20.265,20.265,0,0,1-3.778,3.184,19.852,19.852,0,0,1-4.244,2.122,12.181,12.181,0,0,1-4.032.764A10.113,10.113,0,0,1,970.7,483.7a10.879,10.879,0,0,1-3.523-2.8,12.22,12.22,0,0,1-2.249-4.2,16.923,16.923,0,0,1-.764-5.135,19.393,19.393,0,0,1,1.4-7.131,22.543,22.543,0,0,1,3.82-6.41,20.008,20.008,0,0,1,5.561-4.584,13.633,13.633,0,0,1,6.706-1.74,9.267,9.267,0,0,1,3.778.806,11.706,11.706,0,0,1,3.311,2.208,12.8,12.8,0,0,1,2.5,3.31,11.42,11.42,0,0,1,1.273,4.033Z"/><path class="cls-1" d="M1028.006,431.241h-7.471l-3.141,14.771h-5.687l-1.274,5.858h5.773l-6.367,29.8a12.536,12.536,0,0,0-.255,2.462q0,3.565,2.25,5.178a9.593,9.593,0,0,0,5.73,1.613,23.59,23.59,0,0,0,6.41-.849,14.722,14.722,0,0,0,4.541-1.952l-.424-5.943a23.33,23.33,0,0,1-2.632,1.146,10.962,10.962,0,0,1-3.99.722,4.471,4.471,0,0,1-2.717-.807,2.991,2.991,0,0,1-1.1-2.589,7.077,7.077,0,0,1,.17-1.273l5.857-27.5h9.339l1.273-5.858h-9.423Z"/><polygon class="cls-1" points="1047.785 428.354 1045.833 437.693 1053.304 437.693 1055.256 428.354 1047.785 428.354"/><polygon class="cls-1" points="1034.627 490.326 1042.098 490.326 1051.521 446.012 1044.05 446.012 1034.627 490.326"/><path class="cls-1" d="M1094.646,450.723a16.253,16.253,0,0,0-5.391-3.989,16.976,16.976,0,0,0-7.258-1.486,23.974,23.974,0,0,0-10.314,2.292,28.353,28.353,0,0,0-8.532,6.112,29.367,29.367,0,0,0-5.773,8.744,25.688,25.688,0,0,0-2.122,10.272,22.817,22.817,0,0,0,1.1,7.173,16.923,16.923,0,0,0,3.269,5.858,15.766,15.766,0,0,0,5.348,3.99,17,17,0,0,0,7.258,1.486,24.171,24.171,0,0,0,10.4-2.292,29.008,29.008,0,0,0,14.389-14.856,25.5,25.5,0,0,0,2.122-10.187,22.417,22.417,0,0,0-1.146-7.216A17.082,17.082,0,0,0,1094.646,450.723Zm-4.838,21.733a21.75,21.75,0,0,1-4.033,6.324,20.177,20.177,0,0,1-5.646,4.33,13.956,13.956,0,0,1-6.452,1.613,9.731,9.731,0,0,1-4.414-.976,9.982,9.982,0,0,1-3.353-2.717,12.653,12.653,0,0,1-2.165-4.117,16.85,16.85,0,0,1-.764-5.179,19.59,19.59,0,0,1,1.528-7.64,22.208,22.208,0,0,1,4.033-6.409,19.592,19.592,0,0,1,5.688-4.372,14.056,14.056,0,0,1,6.409-1.613,9.476,9.476,0,0,1,4.372,1.018,10.381,10.381,0,0,1,3.395,2.759,12.689,12.689,0,0,1,2.165,4.118,16.818,16.818,0,0,1,.764,5.178A19.505,19.505,0,0,1,1089.808,472.456Z"/><path class="cls-1" d="M1136.667,445.248a22.844,22.844,0,0,0-10.866,2.8,25.959,25.959,0,0,0-8.744,7.47l2.037-9.508H1112.3l-9.423,44.314h7.47l5.688-26.741a21.786,21.786,0,0,1,3.141-4.669,22.436,22.436,0,0,1,4.075-3.651,21.29,21.29,0,0,1,4.542-2.419,12.491,12.491,0,0,1,4.456-.892q6.028,0,6.028,7.216a31.65,31.65,0,0,1-.764,6.367l-5.264,24.789h7.471l5.6-26.486q.423-2.208.721-4.245a27.1,27.1,0,0,0,.3-3.905,12.236,12.236,0,0,0-2.165-7.6Q1142.016,445.248,1136.667,445.248Z"/></g></svg>